# xmcd
#
# Track frame offsets: 
#        150
#        15525
#        31932
#        43462
#        58137
#        78550
#        92165
#        106252
#        130277
#        145807
#        165527
#        179660
#        199700
#        215602
#        237247
#
# Disc length: 3366 seconds
#
# Revision: 0
# Processed by: cddbd v1.5PL3 Copyright (c) Steve Scherf et al.
# Submitted via: ExactAudioCopy v0.90b4
#
DISCID=d70d240f
DTITLE=Boy Howdy - She'd Give Anything (UK Version)
DYEAR=1900
DGENRE=Country
TTITLE0=They Don't Make Them Like That Anymore
TTITLE1=She'd Give Anything
TTITLE2=Homegrown Love
TTITLE3=The One That Got Away
TTITLE4=Come On, Come On
TTITLE5=Bring On The Teardrops
TTITLE6=Love Is Easy
TTITLE7=If This Is Love
TTITLE8=In Another Tear From Now
TTITLE9=Thanks For The Ride
TTITLE10=Justine
TTITLE11=If Her Heart Ain't In Memphis
TTITLE12=Our Love Was Meant To Be
TTITLE13=A Cowboy's Born With A Broken Heart
TTITLE14=You Really Got Me
EXTD=
EXTT0=
EXTT1=
EXTT2=
EXTT3=
EXTT4=
EXTT5=
EXTT6=
EXTT7=
EXTT8=
EXTT9=
EXTT10=
EXTT11=
EXTT12=
EXTT13=
EXTT14=
PLAYORDER=
